<?xml version="1.0" standalone="no"?>
<!DOCTYPE svg PUBLIC "-//W3C//DTD SVG 20010904//EN"
 "http://www.w3.org/TR/2001/REC-SVG-20010904/DTD/svg10.dtd">
<svg version="1.0" xmlns="http://www.w3.org/2000/svg"
 width="465.000000pt" height="537.000000pt" viewBox="0 0 465.000000 537.000000"
 preserveAspectRatio="xMidYMid meet">

<g transform="translate(0.000000,537.000000) scale(0.100000,-0.100000)"
fill="#000000" stroke="none">
<path d="M2171 5077 c2 -1 14 -11 27 -21 22 -19 22 -19 22 2 0 17 -6 22 -27
22 -14 0 -24 -1 -22 -3z"/>
<path d="M2300 5078 c-1 -2 -3 -81 -7 -175 l-5 -173 23 0 c22 0 24 4 25 48 0
26 2 103 4 172 3 121 2 125 -19 128 -11 2 -21 2 -21 0z"/>
<path d="M2108 5053 c-39 -45 -27 -105 32 -158 68 -62 80 -78 80 -109 0 -18
-6 -38 -12 -45 -11 -10 -10 -11 3 -6 19 7 39 47 39 76 0 33 -19 61 -81 120
-63 59 -74 92 -43 123 8 9 11 16 6 16 -5 0 -16 -8 -24 -17z"/>
<path d="M2409 5061 c7 -5 17 -15 22 -22 6 -10 9 -8 9 9 0 16 -6 22 -22 22
-17 0 -19 -3 -9 -9z"/>
<path d="M1979 5049 c14 -5 30 -14 37 -20 9 -8 11 -5 7 10 -4 16 -13 21 -37
20 -30 0 -30 -1 -7 -10z"/>
<path d="M2501 4933 c-7 -71 -15 -147 -18 -170 -5 -39 -4 -43 16 -43 11 0 21
3 21 8 0 4 5 34 11 67 5 33 12 89 14 125 7 103 14 130 33 130 31 0 46 -18 45
-54 -1 -36 -40 -116 -56 -116 -5 0 -4 -6 2 -14 7 -8 15 -46 18 -85 6 -67 7
-71 31 -71 23 0 24 2 17 38 -20 105 -22 153 -5 175 30 39 41 66 34 91 -7 30
-42 46 -103 46 l-48 0 -12 -127z"/>
<path d="M1878 5045 c-3 -4 -2 -23 3 -43 4 -20 15 -95 24 -167 9 -71 18 -131
20 -133 2 -2 16 1 32 6 15 6 23 11 16 11 -10 1 -14 24 -28 161 -2 19 -8 62
-14 94 -6 32 -8 63 -5 67 6 10 -39 13 -48 4z"/>
<path d="M2746 4941 c-3 -53 -7 -132 -8 -176 -1 -74 0 -80 19 -83 15 -2 23 5
31 25 5 15 13 37 18 47 5 14 4 17 -4 12 -21 -13 -25 23 -13 132 7 58 13 110
14 115 1 6 -10 13 -24 17 l-27 8 -6 -97z"/>
<path d="M1732 4985 c51 -47 93 -216 69 -277 -17 -44 6 -33 30 14 17 32 20 52
15 87 -15 109 -57 180 -115 194 l-25 6 26 -24z"/>
<path d="M1643 4992 c-9 -6 -3 -42 22 -142 18 -74 35 -146 37 -160 2 -19 9
-25 28 -25 17 0 24 5 21 15 -2 8 -20 84 -40 168 -19 83 -40 152 -46 152 -5 0
-15 -4 -22 -8z"/>
<path d="M2886 4988 c-3 -7 -11 -35 -20 -62 -20 -63 -10 -53 19 19 13 30 19
55 14 55 -5 0 -11 -6 -13 -12z"/>
<path d="M2932 4838 c-24 -79 -48 -151 -53 -161 -12 -22 -11 -22 17 -31 18 -6
23 2 44 75 12 44 28 86 34 92 6 7 12 28 14 47 1 19 11 52 21 72 18 36 17 37
-3 42 -12 3 -23 6 -26 6 -3 0 -24 -64 -48 -142z"/>
<path d="M2381 4936 c-8 -10 -8 -16 2 -25 16 -13 27 -5 27 21 0 21 -13 23 -29
4z"/>
<path d="M3082 4931 c16 -25 31 -27 26 -4 -2 10 -11 19 -21 21 -16 3 -17 1 -5
-17z"/>
<path d="M1420 4920 c-13 -8 -13 -10 2 -10 9 0 23 -3 32 -6 11 -4 16 -1 16 10
0 18 -27 21 -50 6z"/>
<path d="M1975 4914 c-10 -8 -14 -14 -8 -14 6 0 18 -3 27 -6 10 -4 16 -1 16 9
0 23 -13 27 -35 11z"/>
<path d="M1350 4897 c-14 -6 -26 -12 -28 -13 -2 -1 2 -10 8 -21 6 -10 34 -82
63 -159 l53 -142 29 13 c17 7 25 14 19 14 -10 1 -66 129 -69 161 -1 8 -14 42
-29 74 -15 32 -25 65 -22 72 3 8 4 14 3 13 -1 0 -13 -5 -27 -12z"/>
<path d="M3177 4889 c-26 -15 -50 -68 -44 -99 3 -15 17 -52 31 -83 15 -31 26
-63 26 -72 0 -26 -20 -55 -43 -65 l-22 -9 23 0 c31 -1 72 42 73 76 2 53 -3 78
-27 125 -13 26 -24 55 -24 65 0 27 27 61 53 66 20 4 20 4 -3 5 -14 1 -33 -3
-43 -9z"/>
<path d="M3268 4873 c5 -10 11 -25 14 -33 3 -10 6 -8 10 8 5 16 1 25 -14 33
-17 9 -18 8 -10 -8z"/>
<path d="M1250 4830 c6 -11 12 -20 14 -20 2 0 2 9 -1 20 -3 11 -9 20 -15 20
-5 0 -4 -9 2 -20z"/>
<path d="M3012 4823 c-10 -4 -10 -8 -1 -19 13 -16 29 -10 29 12 0 15 -6 16
-28 7z"/>
<path d="M1120 4790 c-12 -8 -12 -12 0 -35 8 -15 26 -31 39 -37 13 -5 64 -50
112 -100 75 -79 90 -91 107 -82 19 9 19 10 -9 64 -17 33 -29 47 -29 35 0 -14
-24 4 -93 73 -51 50 -97 92 -102 92 -6 0 -17 -4 -25 -10z"/>
<path d="M1451 4786 c-9 -11 -7 -15 12 -18 20 -4 23 -1 19 14 -5 22 -15 23
-31 4z"/>
<path d="M3460 4780 c0 -10 -135 -257 -152 -278 -9 -10 -8 -16 3 -23 22 -14
37 -11 44 11 9 29 73 133 87 142 7 4 9 8 5 8 -9 0 29 75 53 103 13 17 13 20
-5 33 -22 16 -35 18 -35 4z"/>
<path d="M2100 4750 c0 -14 7 -20 22 -20 20 0 21 1 3 20 -10 11 -20 20 -22 20
-1 0 -3 -9 -3 -20z"/>
<path d="M2042 4740 c-10 -16 -10 -20 2 -20 19 0 27 13 17 28 -4 8 -11 5 -19
-8z"/>
<path d="M2400 4744 l-25 -14 28 0 c17 0 27 5 27 15 0 8 -1 15 -2 14 -2 -1
-14 -7 -28 -15z"/>
<path d="M3568 4704 c4 -22 6 -24 14 -10 9 16 3 36 -11 36 -5 0 -6 -12 -3 -26z"/>
<path d="M997 4693 c18 -10 46 -37 62 -60 36 -50 101 -174 101 -194 1 -10 4
-8 11 4 38 65 -93 267 -173 267 l-33 0 32 -17z"/>
<path d="M940 4681 c-40 -76 61 -264 155 -287 l29 -7 -36 37 c-19 20 -57 71
-84 114 -37 59 -48 87 -48 119 -1 24 -2 43 -3 43 -1 0 -7 -9 -13 -19z"/>
<path d="M3638 4647 c-9 -12 -13 -36 -11 -52 2 -17 -11 -79 -31 -144 -26 -85
-33 -118 -24 -128 6 -7 14 -13 18 -13 13 0 60 79 51 85 -10 6 -9 13 30 149 21
73 25 103 17 113 -16 19 -34 16 -50 -10z"/>
<path d="M1553 4624 c-12 -25 -7 -30 16 -15 9 6 10 14 5 24 -8 13 -11 12 -21
-9z"/>
<path d="M2986 4635 c-28 -12 -28 -12 -5 -18 24 -7 44 4 38 21 -2 5 -16 4 -33
-3z"/>
<path d="M3056 4624 c-4 -10 -1 -21 6 -26 23 -14 29 -9 17 15 -16 30 -16 30
-23 11z"/>
<path d="M3460 4621 c0 -5 6 -14 14 -20 11 -9 15 -8 20 5 3 8 6 17 6 18 0 1
-9 2 -20 3 -11 1 -20 -2 -20 -6z"/>
<path d="M818 4604 c-2 -5 6 -27 18 -49 28 -47 30 -37 5 19 -10 22 -20 36 -23
30z"/>
<path d="M2135 4583 c-230 -28 -615 -137 -615 -174 0 -5 11 -32 25 -59 14 -27
25 -53 25 -58 0 -5 -42 -30 -93 -55 -265 -133 -565 -429 -715 -707 -44 -82
-80 -154 -102 -205 -23 -53 -43 -97 -47 -104 -2 -2 -11 3 -20 11 -14 11 -31
14 -68 9 l-50 -6 -26 -105 c-37 -144 -58 -276 -66 -397 l-6 -103 76 -1 c43 -1
109 -2 147 -3 l70 -1 0 125 c0 90 4 131 14 145 7 11 17 35 20 52 18 80 26 35
26 -141 0 -179 1 -186 20 -186 20 0 20 7 20 269 0 260 1 271 22 311 l23 42 5
-308 c5 -284 6 -309 23 -312 21 -4 21 -11 17 431 l-2 328 23 25 c12 13 26 24
31 24 4 0 8 -182 8 -405 0 -398 0 -405 20 -405 20 0 20 7 20 449 0 449 0 450
23 488 l22 38 5 -485 c5 -477 5 -485 25 -485 20 0 20 7 21 523 1 488 2 524 19
542 10 11 22 20 27 20 13 0 10 -585 -4 -652 -10 -46 -9 -72 1 -126 7 -37 12
-122 11 -189 -1 -118 -1 -123 19 -123 20 0 21 6 21 90 0 50 4 90 8 90 25 0 41
-39 44 -105 3 -62 5 -70 23 -70 17 0 20 8 23 53 3 44 6 53 20 50 12 -2 18 -17
22 -53 4 -42 8 -50 25 -50 16 0 21 8 23 38 3 38 18 47 40 25 6 -6 33 -15 59
-19 27 -4 77 -12 113 -19 75 -13 123 -7 202 28 45 19 60 31 65 51 3 14 14 45
24 69 10 23 15 42 10 42 -4 0 -13 12 -20 26 -11 24 -10 26 9 21 11 -3 23 0 27
5 3 6 1 8 -4 5 -6 -4 -13 4 -15 18 -7 34 7 32 23 -4 l13 -28 41 48 c44 51 73
76 118 99 32 16 24 24 -38 34 -59 11 -151 54 -222 103 -108 76 -204 214 -245
355 -32 106 -31 266 1 368 69 221 258 407 472 465 52 14 129 29 170 33 l74 7
3 98 3 97 -48 -1 c-26 -1 -61 -4 -78 -6z m-835 -997 c0 -337 0 -336 -39 -336
-5 0 -11 138 -13 308 -6 300 -5 308 15 330 11 12 24 22 29 22 4 0 8 -146 8
-324z m113 306 c16 -18 13 -62 -4 -62 -5 0 -8 -83 -6 -184 l2 -183 28 -16 c35
-21 34 -36 -3 -72 -22 -21 -27 -31 -18 -37 10 -6 10 -8 1 -8 -6 0 -11 -9 -10
-19 0 -11 6 -17 14 -14 7 3 13 1 13 -4 0 -5 -18 -10 -40 -11 l-40 -3 -2 68
c-1 37 -3 163 -4 278 0 116 -4 219 -8 231 -15 43 45 71 77 36z m-229 -694
c-10 -10 -21 -18 -26 -18 -4 0 -8 134 -8 298 l0 299 23 10 22 10 3 -290 c2
-259 1 -292 -14 -309z m264 17 c29 -9 68 -30 87 -46 32 -28 34 -35 29 -72 -14
-106 -22 -110 -57 -34 -20 44 -30 55 -58 63 -19 5 -39 20 -45 32 l-11 23 -7
-23 c-3 -13 -6 -44 -6 -70 0 -26 -4 -59 -10 -73 -9 -23 -14 -26 -52 -23 -41 3
-43 5 -49 38 l-5 35 -10 -35 c-10 -33 -13 -35 -60 -41 -27 -3 -38 -7 -24 -8
56 -3 65 -11 78 -63 6 -29 21 -61 31 -72 21 -23 45 -76 37 -84 -7 -6 -89 34
-121 60 -43 34 -64 86 -63 164 0 112 38 175 133 220 58 28 111 30 183 9z m9
-154 c36 -53 31 -71 -17 -71 l-40 0 0 56 c0 47 3 55 17 52 10 -2 28 -18 40
-37z m363 -40 c5 -11 9 -35 8 -53 -1 -18 2 -41 6 -51 7 -14 5 -16 -12 -10 -33
13 -82 62 -82 82 0 45 60 68 80 32z m-446 -83 c3 -18 8 -68 11 -110 6 -75 5
-78 -15 -78 -17 0 -29 17 -56 76 -20 42 -38 91 -41 110 l-6 34 51 0 c50 0 51
-1 56 -32z m97 -79 c-12 -38 -46 -77 -58 -65 -4 4 -9 40 -11 81 l-4 74 38 3
c37 3 39 1 42 -27 2 -16 -1 -46 -7 -66z"/>
<path d="M1795 2930 c3 -5 10 -10 16 -10 5 0 9 5 9 10 0 6 -7 10 -16 10 -8 0
-12 -4 -9 -10z"/>
<path d="M721 4531 l-24 -18 29 -19 c71 -45 165 -129 191 -170 30 -46 43 -53
62 -30 9 11 9 16 0 21 -6 4 -28 33 -48 64 -20 32 -42 56 -49 53 -7 -2 -40 23
-75 56 -62 61 -62 61 -86 43z"/>
<path d="M1246 4497 c3 -10 9 -15 12 -12 3 3 0 11 -7 18 -10 9 -11 8 -5 -6z"/>
<path d="M3815 4476 c-84 -51 -157 -174 -135 -229 8 -20 9 -20 9 -2 1 25 40
83 106 159 52 61 98 92 117 80 7 -4 8 -3 4 4 -12 19 -58 13 -101 -12z"/>
<path d="M3931 4455 c-1 -11 -11 -36 -22 -55 -32 -51 -129 -160 -164 -183
l-30 -19 37 5 c95 14 223 181 190 249 -10 21 -11 22 -11 3z"/>
<path d="M3410 4451 c-34 -6 -34 -7 -13 -19 30 -17 40 -15 46 8 3 11 4 19 4
19 -1 -1 -18 -5 -37 -8z"/>
<path d="M594 4425 c-18 -14 -18 -14 7 -15 14 0 32 -6 41 -12 25 -19 58 -80
58 -105 0 -13 5 -23 12 -23 7 0 38 -18 70 -40 50 -36 60 -39 78 -28 11 7 20
15 20 18 0 3 -19 15 -42 27 -72 35 -127 81 -134 110 -14 57 -33 83 -62 83 -16
0 -37 -7 -48 -15z"/>
<path d="M2360 4413 l0 -31 73 -7 c249 -23 438 -75 641 -176 242 -121 433
-281 601 -504 212 -282 330 -586 368 -950 l12 -120 80 -3 c132 -5 128 -8 120
106 -9 128 -51 343 -72 362 -14 13 -15 13 -10 -7 3 -12 1 -23 -4 -25 -5 -2
-11 -32 -14 -67 -2 -34 -6 -65 -9 -69 -3 -3 -6 -22 -6 -43 0 -21 -8 -47 -18
-59 l-19 -23 -12 64 c-78 411 -208 698 -440 969 -143 168 -354 335 -529 420
-52 25 -72 40 -72 54 0 14 -3 16 -14 7 -10 -9 -24 -7 -59 8 -141 61 -349 109
-508 118 l-109 6 0 -30z"/>
<path d="M3475 4409 c-4 -6 -5 -12 -2 -15 2 -3 7 2 10 11 7 17 1 20 -8 4z"/>
<path d="M538 4374 c-15 -15 -9 -23 68 -103 45 -47 96 -103 111 -123 30 -40
42 -45 61 -26 9 9 1 23 -33 59 -25 27 -45 55 -45 64 0 8 -6 15 -14 15 -8 0
-38 29 -67 64 -30 36 -56 65 -59 65 -3 1 -13 -6 -22 -15z"/>
<path d="M3948 4271 c-105 -104 -126 -139 -106 -174 l13 -22 3 25 c2 16 43 63
114 133 92 90 108 110 98 122 -7 8 -15 15 -19 14 -3 -1 -50 -44 -103 -98z"/>
<path d="M2212 4243 c-36 -61 -82 -183 -82 -219 0 -11 16 -14 64 -14 l63 0 6
83 c10 117 9 217 -2 217 -5 0 -27 -30 -49 -67z"/>
<path d="M449 4284 c-11 -14 -10 -16 9 -12 13 1 23 7 23 13 1 17 -17 16 -32
-1z"/>
<path d="M2114 4278 c-59 -44 -97 -85 -145 -156 -56 -81 -56 -80 33 -96 l36
-7 31 93 c17 51 43 113 56 137 14 24 24 46 22 48 -2 2 -17 -7 -33 -19z"/>
<path d="M4035 4179 c-55 -54 -112 -105 -127 -111 -33 -15 -27 -28 13 -28 24
0 48 17 117 83 48 46 97 92 110 103 21 20 22 21 4 37 -17 15 -24 11 -117 -84z"/>
<path d="M1908 4226 c-61 -37 -148 -106 -148 -118 0 -8 53 -38 68 -38 5 0 26
27 46 59 21 33 47 68 58 78 19 17 43 53 35 53 -2 0 -28 -15 -59 -34z"/>
<path d="M392 4218 c-20 -20 -14 -31 41 -76 29 -23 83 -72 121 -108 l68 -66
21 21 c14 14 17 21 8 21 -7 0 -43 29 -79 65 -36 36 -68 65 -73 65 -4 0 -9 3
-11 8 -2 4 -21 24 -44 45 -31 29 -43 34 -52 25z"/>
<path d="M2543 4184 c-8 -22 10 -49 32 -49 10 0 22 7 28 16 15 24 1 49 -28 49
-15 0 -28 -7 -32 -16z"/>
<path d="M536 4174 c-8 -21 -6 -23 17 -15 17 6 17 9 4 19 -12 10 -16 9 -21 -4z"/>
<path d="M2795 4158 c-36 -19 -76 -62 -90 -95 -13 -30 -18 -33 -57 -33 -128
-2 -197 -124 -137 -241 20 -39 20 -42 3 -77 -39 -82 -28 -146 35 -206 24 -23
42 -30 85 -34 50 -4 56 -7 65 -34 19 -55 50 -86 106 -107 47 -18 61 -19 103
-10 56 13 83 33 106 77 9 18 21 30 25 27 5 -2 14 2 21 10 14 17 82 39 132 43
11 1 15 7 12 17 -4 8 -1 15 5 15 6 0 11 7 11 15 0 8 5 15 11 15 5 0 7 -4 4
-10 -3 -5 -2 -10 3 -10 24 0 23 50 -1 140 -8 30 -14 71 -12 90 2 19 4 38 4 42
1 4 11 8 24 10 12 2 20 7 19 12 -2 5 2 12 9 16 9 6 5 16 -14 40 -15 17 -27 36
-27 42 0 22 -52 79 -90 98 -22 11 -57 20 -80 20 -26 0 -40 5 -40 13 0 26 -52
88 -90 107 -43 22 -113 26 -145 8z m146 -77 c46 -46 49 -68 12 -82 -16 -6 -42
-21 -59 -34 -31 -24 -32 -24 -49 -5 -9 10 -37 27 -61 37 -25 10 -44 25 -44 33
1 41 68 90 124 90 31 0 45 -7 77 -39z m-245 -172 l4 -66 -39 -7 c-22 -3 -53
-17 -69 -31 l-29 -24 -12 25 c-6 14 -11 46 -11 73 0 69 39 101 118 98 l33 -2
5 -66z m112 24 c20 -9 14 -18 -21 -31 -45 -16 -43 -16 -56 19 -17 48 -14 51
27 33 20 -9 43 -18 50 -21z m192 -9 c-5 -19 -11 -38 -14 -42 -4 -3 -25 3 -49
15 l-42 20 35 22 c19 11 45 21 56 21 20 0 21 -3 14 -36z m-85 -79 c21 -8 39
-25 45 -40 11 -29 13 -105 4 -130 -10 -25 -59 -45 -112 -45 -45 0 -53 4 -81
35 -36 41 -41 87 -15 140 24 52 92 69 159 40z m-221 -92 c-3 -27 -8 -50 -10
-52 -2 -2 -21 3 -41 10 -50 19 -51 48 -3 71 56 28 62 25 54 -29z m-91 -67 c10
-14 33 -28 62 -35 42 -11 46 -14 40 -34 -3 -12 -9 -41 -12 -64 -5 -40 -8 -43
-35 -43 -72 0 -138 68 -124 125 20 78 41 94 69 51z m182 -92 c14 -9 25 -20 25
-25 0 -11 -68 -45 -75 -38 -8 8 7 79 17 79 5 0 20 -7 33 -16z"/>
<path d="M322 4132 c2 -4 28 -30 58 -57 l54 -50 -49 57 c-44 50 -74 74 -63 50z"/>
<path d="M4162 4127 c-84 -31 -162 -121 -162 -189 l0 -33 25 42 c13 24 36 54
52 69 47 42 131 94 164 101 22 4 27 8 17 14 -18 12 -56 10 -96 -4z"/>
<path d="M698 4065 c-5 -25 -4 -25 10 -11 12 11 13 19 5 27 -7 7 -12 3 -15
-16z"/>
<path d="M4298 4065 c-5 -25 -4 -25 10 -11 12 11 13 19 5 27 -7 7 -12 3 -15
-16z"/>
<path d="M252 4047 c-6 -6 -12 -17 -14 -24 -3 -10 279 -163 301 -163 5 0 12 8
15 17 5 11 -3 27 -24 47 -16 17 -30 25 -30 19 0 -9 -8 -9 -32 -1 -43 15 -148
75 -174 99 -24 22 -28 23 -42 6z"/>
<path d="M1692 4027 c-17 -24 -50 -104 -70 -172 -11 -38 -23 -78 -27 -87 -6
-16 1 -18 79 -18 83 0 86 1 86 23 0 20 -4 22 -45 19 l-46 -4 25 67 c33 87 34
88 67 83 29 -4 39 6 39 40 -1 23 -95 65 -108 49z"/>
<path d="M4166 3981 c-10 -11 -44 -39 -77 -62 -47 -34 -56 -45 -43 -52 20 -11
35 -5 105 46 60 44 68 57 46 76 -11 8 -18 6 -31 -8z"/>
<path d="M4295 3929 c-38 -27 -92 -62 -120 -78 -84 -49 -88 -53 -71 -76 14
-19 15 -19 35 -1 31 28 144 96 159 96 7 0 25 14 39 30 13 17 31 30 38 30 18 0
26 15 19 34 -9 23 -22 19 -99 -35z"/>
<path d="M1884 3948 c-12 -38 -44 -172 -44 -185 0 -10 23 -13 84 -13 l83 0 7
80 c3 44 9 86 12 94 4 11 -9 17 -53 26 -31 7 -63 14 -69 17 -7 2 -16 -6 -20
-19z m96 -149 c0 -14 -7 -19 -28 -19 -36 0 -40 5 -35 34 5 22 8 23 34 14 18
-6 29 -17 29 -29z"/>
<path d="M181 3947 c-6 -6 -11 -14 -11 -18 0 -9 39 1 45 11 8 13 -22 19 -34 7z"/>
<path d="M2116 3932 c-3 -6 -9 -32 -11 -59 -3 -26 -8 -65 -11 -85 l-4 -38 85
0 85 0 0 90 0 90 -47 0 c-27 0 -58 3 -69 6 -12 3 -25 1 -28 -4z"/>
<path d="M127 3860 c-10 -16 -14 -30 -9 -30 5 0 71 -39 147 -86 128 -81 139
-86 151 -69 12 16 7 22 -47 54 -34 20 -72 46 -86 59 -13 12 -29 22 -34 22 -14
0 -96 57 -101 70 -2 6 -11 -3 -21 -20z"/>
<path d="M4401 3849 c-24 -16 -48 -26 -52 -23 -5 3 -9 1 -9 -5 0 -12 -110 -90
-152 -108 -31 -13 -35 -25 -14 -42 11 -9 42 7 146 74 73 47 137 85 141 85 13
0 11 14 -3 32 -12 14 -18 13 -57 -13z"/>
<path d="M280 3839 c0 -18 2 -19 15 -9 15 12 12 30 -6 30 -5 0 -9 -10 -9 -21z"/>
<path d="M450 3758 l1 -33 13 25 c14 25 13 40 -5 40 -5 0 -9 -15 -9 -32z"/>
<path d="M1596 3662 c-9 -16 62 -244 82 -264 11 -11 122 21 122 35 0 9 -7 8
-50 -7 l-35 -13 -22 76 c-29 100 -29 103 3 91 54 -21 63 -15 62 40 l-1 50 -78
0 c-43 0 -80 -4 -83 -8z"/>
<path d="M1845 3628 c10 -62 35 -162 43 -169 4 -3 30 -1 57 6 43 11 46 13 18
14 -28 1 -33 6 -46 45 -16 48 -13 60 12 47 9 -4 31 -11 49 -14 l32 -6 0 59 0
60 -86 0 -86 0 7 -42z"/>
<path d="M2096 3623 c3 -27 7 -68 10 -92 l6 -44 51 7 c29 3 62 6 75 6 21 0 22
4 22 85 l0 85 -85 0 -85 0 6 -47z"/>
<path d="M3406 3609 c-37 -10 -85 -55 -102 -96 -19 -43 -18 -117 2 -154 20
-39 14 -45 -25 -24 -24 12 -54 15 -124 13 l-92 -3 1 -77 c3 -164 106 -263 284
-271 l55 -2 3 -77 3 -78 -217 0 -217 0 6 -38 c4 -20 14 -70 23 -110 l16 -72
176 0 c96 0 172 3 169 7 -4 3 -73 7 -154 7 -132 1 -148 3 -151 19 -3 16 15 17
270 17 272 0 348 -5 348 -21 0 -5 -30 -9 -66 -9 -41 0 -63 -4 -59 -10 9 -14
302 -13 311 1 3 6 17 9 29 7 16 -4 22 -1 18 9 -3 7 -2 24 1 37 5 19 11 23 28
19 20 -5 18 0 -14 33 -25 26 -38 50 -40 73 l-3 35 -202 0 c-111 1 -204 4 -208
8 -4 4 -4 23 -1 42 6 29 13 37 44 47 20 6 42 15 47 19 21 14 94 32 109 27 10
-4 13 -1 10 8 -4 9 3 16 19 20 25 7 76 55 94 90 6 11 13 34 14 50 2 17 6 32 9
35 22 22 29 51 18 70 -7 11 -16 20 -20 20 -4 0 -10 15 -14 34 -6 33 -8 35 -59
41 -28 4 -74 5 -101 3 l-49 -3 1 35 c2 65 4 71 16 64 14 -9 -74 107 -94 124
-30 25 -83 39 -112 31z m60 -56 c19 -14 41 -38 48 -52 15 -29 31 -113 19 -94
-10 14 -23 6 -39 -22 -19 -33 -29 -23 -32 33 -2 37 -7 52 -18 52 -11 0 -14
-20 -14 -105 0 -58 -3 -105 -8 -105 -39 0 -102 107 -102 175 0 59 58 144 98
145 7 0 29 -12 48 -27z m-164 -268 c41 -26 62 -48 77 -78 26 -54 47 -134 38
-144 -4 -4 -42 27 -85 69 -70 69 -162 131 -162 110 0 -5 38 -45 85 -89 47 -45
85 -86 85 -92 0 -6 -20 -11 -48 -11 -39 0 -58 6 -91 30 -51 37 -98 111 -107
167 -10 68 -5 73 78 73 67 0 79 -3 130 -35z m438 12 c-116 -91 -167 -136 -211
-187 -29 -33 -57 -56 -61 -52 -4 4 -4 33 -1 66 5 44 14 68 37 100 48 63 97 86
181 86 57 -1 67 -3 55 -13z m-100 -516 c14 -4 26 -14 28 -23 7 -35 -34 -41
-332 -46 -272 -5 -290 -4 -303 13 -7 11 -13 29 -13 42 l0 23 298 -1 c163 -1
308 -4 322 -8z"/>
<path d="M2158 3413 c-16 -2 -28 -7 -28 -11 0 -27 44 -150 72 -203 50 -95 49
-93 59 -78 9 14 11 263 2 286 -5 13 -46 15 -105 6z"/>
<path d="M1968 3388 c-44 -12 -46 -18 -16 -67 40 -66 172 -201 184 -188 3 3
-5 25 -17 49 -12 23 -35 81 -49 128 -29 93 -34 97 -102 78z"/>
<path d="M1778 3338 c-39 -14 -35 -30 18 -77 42 -37 162 -111 179 -111 4 0
-13 24 -37 53 -25 28 -57 73 -72 100 -29 49 -40 53 -88 35z"/>
<path d="M2808 3152 c-32 -31 -62 -70 -68 -85 -47 -131 72 -240 197 -180 64
30 91 114 62 189 -10 28 -112 135 -127 133 -4 0 -33 -26 -64 -57z m52 -87 c0
-74 0 -75 26 -75 31 0 28 -23 -4 -28 -16 -2 -22 -10 -22 -28 0 -27 -5 -29 -38
-10 -30 16 -62 65 -62 94 0 43 59 122 91 122 5 0 9 -34 9 -75z m88 12 c12 -18
22 -45 22 -60 0 -31 2 -30 -39 -16 -30 10 -31 13 -31 65 0 61 11 64 48 11z"/>
<path d="M2187 2990 c-98 -31 -196 -122 -244 -226 -25 -53 -28 -70 -28 -174 0
-109 2 -119 31 -180 18 -36 50 -84 73 -106 48 -49 161 -111 211 -116 l35 -3 0
130 0 130 -152 3 -153 3 0 29 c0 16 4 32 10 35 8 5 55 66 154 202 174 239 168
232 209 233 l37 0 1 -147 c0 -82 4 -170 7 -198 l7 -50 88 -5 c48 -3 87 -8 87
-12 0 -5 0 -26 0 -48 l0 -39 -92 -3 -93 -3 -3 -133 -3 -133 28 7 c67 14 152
66 205 123 64 69 82 102 101 196 35 173 -31 346 -166 433 -111 72 -232 90
-350 52z m361 -208 c4 -28 -24 -40 -45 -19 -14 13 -14 19 -3 32 18 22 44 15
48 -13z"/>
<path d="M3140 2960 c0 -19 20 -27 33 -13 8 7 -11 33 -24 33 -5 0 -9 -9 -9
-20z"/>
<path d="M2230 2684 c-48 -67 -80 -117 -80 -128 0 -9 115 -4 125 6 3 2 2 42
-2 87 l-8 83 -35 -48z"/>
<path d="M380 2457 c0 -220 82 -502 217 -744 184 -330 528 -659 850 -813 182
-87 396 -154 568 -179 100 -15 244 -18 248 -6 1 6 1 47 -1 91 l-3 82 -92 7
c-51 4 -139 17 -197 29 l-105 21 -3 38 c-4 46 15 49 70 12 22 -15 58 -27 90
-31 46 -5 60 -3 103 22 28 15 56 36 64 46 7 11 26 33 42 49 27 28 29 35 29
114 0 47 -3 84 -7 84 -20 -3 -34 2 -28 10 3 5 -6 22 -20 37 -34 37 -33 64 3
64 44 0 52 16 52 107 0 66 -3 81 -14 77 -17 -6 -23 2 -31 42 -8 39 -10 45 -23
74 -5 14 -13 33 -16 43 -4 14 -17 17 -73 17 -43 0 -63 4 -54 9 11 7 10 11 -6
21 -13 9 -18 20 -15 35 2 13 -1 26 -8 30 -8 5 -8 10 1 21 9 11 8 14 -5 14 -18
0 -22 15 -6 25 17 10 -1 58 -35 95 -18 19 -48 60 -67 90 -19 30 -44 63 -56 73
-20 18 -21 18 -61 -18 -107 -97 -119 -311 -22 -398 35 -31 40 -41 41 -84 3
-76 1 -80 -19 -47 -44 73 -147 133 -230 135 -20 0 -44 4 -54 7 -16 7 -16 8 3
22 21 15 29 36 8 24 -8 -5 -9 0 -4 17 4 13 7 29 7 34 -4 134 -12 258 -16 265
-3 5 -1 11 5 15 20 12 2 84 -36 142 -33 48 -40 68 -44 123 l-5 65 -63 -2 c-35
-1 -66 -3 -68 -5 -2 -2 -4 -106 -5 -231 l-1 -227 -24 0 -24 0 -2 233 -3 232
-54 3 c-52 3 -75 -6 -77 -31 0 -7 -2 -110 -2 -229 -2 -211 -3 -218 -22 -218
-11 0 -21 1 -22 3 -1 1 -5 108 -8 237 l-5 235 -60 0 -60 0 0 -300 c0 -165 4
-313 8 -328 10 -38 82 -114 129 -138 l38 -19 0 -147 0 -146 -26 24 c-14 13
-61 65 -103 114 -215 252 -350 571 -380 897 -5 49 -10 90 -12 92 -2 2 -48 6
-101 9 l-98 6 0 -72z m641 -214 c0 -115 3 -226 7 -248 6 -35 11 -40 36 -43 16
-2 39 -1 52 2 l24 6 0 246 0 245 33 -3 32 -3 2 -245 2 -245 27 -3 c15 -2 43
-1 62 3 l34 6 -3 242 -4 242 35 0 35 0 -2 -160 c-3 -226 -9 -388 -17 -427 -10
-56 -93 -124 -171 -143 -27 -6 -28 -8 -13 -19 16 -12 18 -36 20 -205 l3 -192
-25 6 c-59 15 -61 23 -60 218 l2 180 -37 13 c-21 7 -53 27 -72 46 -68 65 -68
62 -71 391 l-3 297 35 0 36 0 1 -207z m-521 122 c0 -32 -5 -47 -15 -52 -21 -8
-24 -4 -31 50 -7 46 -6 47 20 47 24 0 26 -3 26 -45z m59 -220 c12 -38 31 -94
43 -123 18 -45 19 -55 7 -63 -46 -29 -65 0 -105 160 -29 112 -28 109 -6 114
26 6 38 -12 61 -88z m1309 -76 c53 -109 54 -227 3 -273 -16 -15 -17 -11 -20
82 -1 53 -4 99 -7 101 -13 14 -19 -23 -18 -115 2 -81 -1 -104 -11 -104 -15 0
-44 39 -63 83 -14 33 -16 129 -2 175 13 47 58 122 73 122 7 -1 27 -32 45 -71z
m-1224 -205 c10 -26 7 -34 -13 -34 -17 0 -31 18 -31 41 0 16 38 10 44 -7z
m1354 -125 c-18 -12 -25 -11 -31 4 -4 10 2 13 20 9 18 -3 21 -7 11 -13z m-355
-41 c84 -44 142 -129 153 -223 l5 -50 -22 30 c-37 49 -188 199 -195 193 -11
-12 19 -54 100 -137 l81 -83 -44 6 c-24 4 -56 13 -72 21 -34 18 -96 81 -114
115 -15 30 -29 116 -20 130 9 14 101 13 128 -2z m489 -23 c-8 -79 -32 -133
-76 -172 -37 -33 -123 -70 -135 -58 -2 2 22 28 54 56 51 48 158 177 138 167
-42 -20 -72 -45 -158 -137 l-100 -106 -3 42 c-6 83 65 191 152 229 17 7 54 13
81 11 49 -2 50 -3 47 -32z m-666 17 c6 -4 14 -30 17 -59 8 -67 35 -120 88
-167 52 -47 107 -72 182 -81 l57 -6 0 -77 c-1 -62 -3 -73 -12 -57 -16 30 -69
84 -103 105 -43 27 -122 43 -174 35 l-44 -7 6 -80 c7 -100 38 -156 117 -209
57 -39 140 -63 178 -53 20 6 22 3 22 -30 0 -23 -5 -36 -13 -36 -16 0 -172 63
-236 94 -193 98 -241 135 -241 190 0 20 -5 36 -10 36 -7 0 -7 6 -1 18 5 9 9
73 8 142 0 158 10 192 66 219 39 18 65 29 77 30 3 0 10 -3 16 -7z m-706 -57
c13 -16 7 -45 -9 -45 -14 0 -33 38 -26 50 9 14 21 12 35 -5z m1477 -97 c-3 -8
-6 -5 -6 6 -1 11 2 17 5 13 3 -3 4 -12 1 -19z m-1297 -145 c0 -19 -24 -16 -45
7 -10 11 -15 26 -11 36 6 15 9 14 31 -6 14 -13 25 -29 25 -37z m713 -63 c51
-23 92 -66 117 -125 23 -53 34 -115 20 -115 -5 0 -10 4 -10 9 0 13 -167 181
-179 181 -30 0 18 -68 97 -140 l67 -60 -35 0 c-65 0 -155 62 -190 130 -22 42
-35 104 -26 125 8 22 84 19 139 -5z m483 -17 c-22 -122 -67 -183 -158 -213
-29 -10 -55 -15 -58 -13 -3 3 20 28 51 57 73 67 133 135 126 142 -16 16 -146
-97 -199 -173 -39 -58 -58 -57 -58 5 0 51 37 128 81 169 35 32 117 62 173 62
l48 1 -6 -37z m-251 14 c11 -12 10 -18 -9 -40 l-23 -27 -1 32 c-1 48 9 59 33
35z m-827 -49 c19 -19 14 -30 -8 -18 -11 6 -20 15 -20 20 0 14 14 12 28 -2z
m112 -83 c13 -16 6 -35 -15 -35 -18 0 -28 17 -21 35 7 19 20 19 36 0z m170
-119 c19 -12 44 -27 55 -34 11 -6 46 -25 77 -42 53 -28 75 -46 66 -55 -9 -9
-79 17 -105 39 -15 12 -43 28 -62 36 -46 18 -133 89 -125 101 4 6 16 4 32 -7
15 -10 43 -27 62 -38z m418 -213 c4 -26 2 -27 -32 -12 -29 14 -24 42 8 37 13
-2 22 -12 24 -25z m276 -49 c9 -3 16 -13 16 -21 0 -21 -44 -12 -48 10 -4 18 6
21 32 11z"/>
<path d="M2806 2510 c-3 -8 -8 -31 -11 -50 -14 -70 -64 -160 -121 -220 -87
-91 -142 -121 -287 -154 l-27 -6 2 -688 3 -687 85 3 c47 2 121 8 165 13 89 12
312 68 391 98 70 27 222 103 297 147 130 78 349 257 396 323 20 28 20 29 1 51
-11 13 -20 17 -20 10 0 -10 -3 -10 -15 0 -8 7 -12 17 -8 24 4 6 6 21 5 32 -2
14 29 65 87 145 49 68 113 168 142 224 29 55 56 105 61 112 14 18 70 -12 91
-49 9 -16 22 -28 29 -26 30 10 116 241 148 397 23 116 42 293 32 303 -4 4
-330 9 -725 10 -631 3 -718 1 -721 -12z m666 -70 c44 -13 54 -25 37 -46 -11
-14 -9 -15 22 -12 37 3 35 7 24 -66 -2 -16 -17 -42 -32 -58 -27 -28 -51 -39
-37 -16 5 8 2 9 -10 5 -10 -4 -22 -7 -27 -7 -5 0 -9 -7 -9 -16 0 -14 -8 -16
-42 -11 -71 10 -128 90 -128 181 0 27 2 28 36 23 28 -5 43 -1 62 13 28 23 50
24 104 10z m-407 -165 c118 -31 177 -70 230 -155 20 -32 55 -141 55 -173 0 -7
-53 40 -118 103 -66 63 -133 123 -151 134 l-33 18 15 -28 c8 -16 53 -65 99
-109 46 -44 98 -99 116 -122 l34 -43 -46 0 c-58 0 -148 34 -192 72 -38 34 -96
117 -113 161 -6 16 -11 57 -11 93 0 63 0 64 28 64 15 0 54 -7 87 -15z m815 0
c0 -9 -30 -37 -67 -63 -65 -45 -128 -104 -256 -240 -32 -34 -63 -62 -69 -62
-19 0 3 122 31 175 50 95 134 155 261 189 73 19 100 20 100 1z m-1037 -194
c33 -31 33 -38 5 -68 -27 -29 -55 -29 -85 -1 -34 32 -26 85 17 100 18 6 27 2
63 -31z m606 -67 c3 -3 7 -161 9 -351 3 -345 3 -346 -19 -369 -46 -49 -47 -45
-48 294 0 174 2 345 5 379 6 55 8 61 26 58 12 -3 23 -7 27 -11z m121 -98 c0
-3 -4 -8 -10 -11 -5 -3 -10 -1 -10 4 0 6 5 11 10 11 6 0 10 -2 10 -4z m-668
-66 c17 -16 38 -30 47 -30 9 0 29 -8 45 -18 25 -15 29 -24 30 -64 1 -30 8 -55
19 -68 10 -12 23 -33 28 -48 19 -49 1 -222 -23 -222 -4 0 -8 -6 -8 -12 -1 -32
-115 -131 -163 -143 -32 -8 -35 6 -13 59 21 49 29 113 17 121 -6 3 -9 10 -6
15 3 5 1 11 -5 15 -16 10 -12 42 6 49 18 7 16 57 -2 63 -7 2 -10 -5 -7 -21 4
-18 -3 -31 -26 -52 -34 -30 -39 -51 -16 -60 23 -9 18 -63 -11 -118 -19 -36
-25 -60 -22 -92 4 -49 2 -50 -64 -30 -112 33 -192 124 -228 259 -33 121 -6
218 87 318 69 74 139 105 246 108 29 1 44 -6 69 -29z m-387 -720 c3 -5 23 -10
44 -10 44 0 61 -14 61 -50 0 -33 -17 -50 -51 -50 -15 0 -31 -4 -34 -10 -11
-18 -36 -10 -71 22 -36 34 -37 55 -6 91 17 19 47 23 57 7z m384 -281 c-5 -11
-19 -19 -29 -19 -26 0 -27 45 -2 59 24 14 45 -14 31 -40z m-289 -48 c0 -20
-25 -35 -41 -25 -13 8 -11 32 4 37 25 11 37 7 37 -12z"/>
<path d="M3410 2340 c-8 -16 -8 -22 4 -26 26 -10 51 1 54 24 3 18 -1 22 -22
22 -15 0 -30 -8 -36 -20z"/>
<path d="M3525 2350 c-3 -5 -2 -10 4 -10 5 0 13 5 16 10 3 6 2 10 -4 10 -5 0
-13 -4 -16 -10z"/>
<path d="M2975 1634 c-18 -19 -6 -49 24 -57 28 -7 45 16 32 41 -15 27 -38 34
-56 16z"/>
<path d="M2600 1469 c0 -5 5 -7 10 -4 6 3 10 8 10 11 0 2 -4 4 -10 4 -5 0 -10
-5 -10 -11z"/>
<path d="M2600 1423 c0 -17 -6 -33 -12 -36 -7 -2 -10 -7 -6 -11 9 -11 48 12
48 27 0 7 -7 22 -15 33 -14 18 -14 17 -15 -13z"/>
</g>
</svg>
